<?xml version="1.0" encoding="iso-8859-1"?>
<!-- Generator: Adobe Illustrator 19.0.0, SVG Export Plug-In . SVG Version: 6.00 Build 0)  -->
<svg xmlns="http://www.w3.org/2000/svg" xmlns:xlink="http://www.w3.org/1999/xlink" version="1.1" id="Capa_1" x="0px" y="0px" viewBox="0 0 60 60" style="enable-background:new 0 0 60 60;" xml:space="preserve" width="512px" height="512px">
<g>
	<g>
		<path d="M59,20H29c-0.6,0-1,0.4-1,1v38c0,0.6,0.4,1,1,1h30c0.6,0,1-0.4,1-1V21C60,20.4,59.6,20,59,20z M58,22v6H30    c0-0.6,0-1.6,0-2h12v-2H30c0-0.2,0-2,0-2H58z M30,58c0,0,0-18.3,0-28h28v28H30z" fill="#FFFFFF"/>
		<rect x="35" y="32" width="3" height="2" fill="#FFFFFF"/>
		<rect x="40" y="32" width="3" height="2" fill="#FFFFFF"/>
		<rect x="45" y="32" width="3" height="2" fill="#FFFFFF"/>
		<rect x="50" y="32" width="3" height="2" fill="#FFFFFF"/>
		<rect x="33" y="37" width="4" height="2" fill="#FFFFFF"/>
		<rect x="39" y="37" width="4" height="2" fill="#FFFFFF"/>
		<rect x="45" y="37" width="4" height="2" fill="#FFFFFF"/>
		<rect x="51" y="37" width="4" height="2" fill="#FFFFFF"/>
		<rect x="33" y="41" width="4" height="2" fill="#FFFFFF"/>
		<rect x="39" y="41" width="4" height="2" fill="#FFFFFF"/>
		<rect x="45" y="41" width="4" height="2" fill="#FFFFFF"/>
		<rect x="51" y="41" width="4" height="2" fill="#FFFFFF"/>
		<rect x="33" y="45" width="4" height="2" fill="#FFFFFF"/>
		<rect x="39" y="45" width="4" height="2" fill="#FFFFFF"/>
		<rect x="45" y="45" width="4" height="2" fill="#FFFFFF"/>
		<rect x="51" y="45" width="4" height="2" fill="#FFFFFF"/>
		<rect x="33" y="49" width="4" height="2" fill="#FFFFFF"/>
		<rect x="39" y="49" width="4" height="2" fill="#FFFFFF"/>
		<rect x="45" y="49" width="4" height="2" fill="#FFFFFF"/>
		<rect x="51" y="49" width="4" height="2" fill="#FFFFFF"/>
		<rect x="33" y="53" width="4" height="2" fill="#FFFFFF"/>
		<rect x="39" y="53" width="4" height="2" fill="#FFFFFF"/>
		<rect x="45" y="53" width="4" height="2" fill="#FFFFFF"/>
		<rect x="51" y="53" width="4" height="2" fill="#FFFFFF"/>
		<path d="M2,14h11c0.6,0,1-0.4,1-1V2h34v14h2V1c0-0.6-0.4-1-1-1H13l0,0c-0.1,0-0.2,0-0.3,0.1h-0.1c-0.1,0.1-0.2,0.1-0.3,0.2l-12,12    c-0.1,0.1-0.1,0.2-0.2,0.3v0.1C0.1,12.8,0,12.9,0,13l0,0v11h2C2,24,2,15.1,2,14z M12,12H3.4l4.3-4.3L12,3.4L12,12L12,12z" fill="#FFFFFF"/>
		<path d="M25,43H14v-4v-5v-5c0-0.6-0.4-1-1-1H1c-0.6,0-1,0.4-1,1v5v5v5v5v5v5c0,0.6,0.4,1,1,1h12h12c0.6,0,1-0.4,1-1v-5v-5v-5    C26,43.4,25.6,43,25,43z M2,45h10v3H2V45z M12,43H2v-3h10V43z M12,38H2v-3h10V38z M2,50h10v3H2V50z M14,50h10v3H14V50z M24,48H14    v-3h10V48z M2,30h10v3H2V30z M2,55h10v3H2V55z M24,58H14v-3h10V58z" fill="#FFFFFF"/>
		<rect x="38" y="5" width="7" height="2" fill="#FFFFFF"/>
		<rect x="27" y="10" width="18" height="2" fill="#FFFFFF"/>
		<rect x="44" y="24" width="3" height="2" fill="#FFFFFF"/>
	</g>
</g>
<g>
</g>
<g>
</g>
<g>
</g>
<g>
</g>
<g>
</g>
<g>
</g>
<g>
</g>
<g>
</g>
<g>
</g>
<g>
</g>
<g>
</g>
<g>
</g>
<g>
</g>
<g>
</g>
<g>
</g>
</svg>
